<svg width="56" height="56" viewBox="0 0 56 56" fill="none" xmlns="http://www.w3.org/2000/svg">
<rect x="4" y="4" width="48" height="48" rx="24" fill="#D3E7FF"/>
<rect x="4" y="4" width="48" height="48" rx="24" stroke="#E5F1FF" stroke-width="8"/>
<path d="M33 34.4302H29L24.55 37.3902C23.89 37.8302 23 37.3602 23 36.5602V34.4302C20 34.4302 18 32.4302 18 29.4302V23.4302C18 20.4302 20 18.4302 23 18.4302H33C36 18.4302 38 20.4302 38 23.4302V29.4302C38 32.4302 36 34.4302 33 34.4302Z" stroke="#1964F5" stroke-width="1.5" stroke-miterlimit="10" stroke-linecap="round" stroke-linejoin="round"/>
<path d="M27.9998 27.3599V27.1499C27.9998 26.4699 28.4198 26.1099 28.8398 25.8199C29.2498 25.5399 29.6598 25.1799 29.6598 24.5199C29.6598 23.5999 28.9198 22.8599 27.9998 22.8599C27.0798 22.8599 26.3398 23.5999 26.3398 24.5199" stroke="#1964F5" stroke-width="1.5" stroke-linecap="round" stroke-linejoin="round"/>
<path d="M27.9955 29.75H28.0045" stroke="#1964F5" stroke-width="1.5" stroke-linecap="round" stroke-linejoin="round"/>
</svg>
