<svg xmlns="http://www.w3.org/2000/svg" width="146" height="87" viewBox="0 0 146 87" fill="none">
  <g clip-path="url(#clip0_776_1444)">
    <g opacity="0.8">
      <path fill-rule="evenodd" clip-rule="evenodd" d="M131 43.5C131 67.143 111.833 86.3095 88.1903 86.3095C64.5474 86.3095 45.3809 67.143 45.3809 43.5C45.3809 19.8569 64.5474 0.69043 88.1903 0.69043C111.833 0.69043 131 19.8569 131 43.5Z" stroke="#8F8F8F" stroke-width="0.1"/>
      <path fill-rule="evenodd" clip-rule="evenodd" d="M113.047 43.8455C113.047 57.3831 102.073 68.3573 88.5353 68.3573C74.9979 68.3573 64.0234 57.3831 64.0234 43.8455C64.0234 30.3078 74.9979 19.3335 88.5353 19.3335C102.073 19.3335 113.047 30.3078 113.047 43.8455Z" fill="#EAEAEA"/>
      <path fill-rule="evenodd" clip-rule="evenodd" d="M119.262 43.8454C119.262 60.8151 105.505 74.5715 88.5358 74.5715C71.5662 74.5715 57.8096 60.8151 57.8096 43.8454C57.8096 26.8758 71.5662 13.1191 88.5358 13.1191C105.505 13.1191 119.262 26.8758 119.262 43.8454Z" stroke="#8F8F8F" stroke-width="0.3"/>
      <path fill-rule="evenodd" clip-rule="evenodd" d="M124.785 43.5001C124.785 63.7111 108.401 80.0953 88.19 80.0953C67.9792 80.0953 51.5947 63.7111 51.5947 43.5001C51.5947 23.289 67.9792 6.90479 88.19 6.90479C108.401 6.90479 124.785 23.289 124.785 43.5001Z" stroke="#8F8F8F" stroke-width="0.2"/>
    </g>
    <path fill-rule="evenodd" clip-rule="evenodd" d="M23.4868 32.4521V43.9456C23.4868 50.2834 18.3313 55.439 11.9934 55.439C5.65558 55.439 0.5 50.2834 0.5 43.9456V32.4521H4.60474V43.9456C4.60474 48.0175 7.92147 51.3342 11.9934 51.3342C16.0654 51.3342 19.3821 48.0175 19.3821 43.9456V32.4521H23.4868Z" fill="#0F2A54"/>
    <path fill-rule="evenodd" clip-rule="evenodd" d="M49.8558 51.3014V55.4062L26.869 55.439L26.9018 55.4062L41.4491 36.5569H26.8359V32.4521H44.6016H49.7572L46.5719 36.5569L40.8581 43.9784L38.264 47.3279L35.1771 51.3014H49.8558Z" fill="#0F2A54"/>
    <path fill-rule="evenodd" clip-rule="evenodd" d="M75.3207 55.439H70.7233L68.6216 51.3342L63.5975 41.4827L58.5731 51.3342L56.4714 55.439H51.874L53.9757 51.3342L63.5975 32.4521L73.219 51.3342L75.3207 55.439Z" fill="#0F2A54"/>
    <path fill-rule="evenodd" clip-rule="evenodd" d="M65.929 53.1305C65.929 51.8424 64.8847 50.7983 63.5968 50.7983C62.3089 50.7983 61.2646 51.8424 61.2646 53.1305C61.2646 54.4184 62.3089 55.4627 63.5968 55.4627C64.8847 55.4627 65.929 54.4184 65.929 53.1305Z" fill="#FF0000"/>
    <path fill-rule="evenodd" clip-rule="evenodd" d="M81.9932 55.4327H82.6184V32.4946H81.9932V55.4327Z" fill="#0F2A54"/>
    <path fill-rule="evenodd" clip-rule="evenodd" d="M94.6725 35.9692C94.6725 34.429 93.5066 33.2889 91.9576 33.2889C90.4 33.2889 89.2342 34.429 89.2342 35.9692C89.2342 37.5093 90.4 38.6492 91.9576 38.6492C93.5066 38.6492 94.6725 37.5093 94.6725 35.9692ZM88.79 35.9692C88.79 34.2025 90.1391 32.8799 91.9576 32.8799C93.7676 32.8799 95.1251 34.194 95.1251 35.9692C95.1251 37.7443 93.7676 39.0584 91.9576 39.0584C90.1391 39.0584 88.79 37.7356 88.79 35.9692Z" fill="#0F2A54"/>
    <path fill-rule="evenodd" clip-rule="evenodd" d="M96.6831 34.1414C96.6831 34.3503 96.5264 34.5068 96.3264 34.5068C96.1087 34.5068 95.9609 34.3414 95.9609 34.1414C95.9609 34.0196 95.9783 33.9324 96.0392 33.7413L96.3786 32.5576H96.6831L96.4048 33.7846C96.57 33.8282 96.6831 33.9673 96.6831 34.1414Z" fill="#0F2A54"/>
    <path fill-rule="evenodd" clip-rule="evenodd" d="M101.191 38.6404V39.0145H97.5801V38.7186L100.574 34.8465H97.6236V34.4722H101.139V34.768L98.1369 38.6404H101.191Z" fill="#0F2A54"/>
    <path fill-rule="evenodd" clip-rule="evenodd" d="M106.587 36.7432C106.587 35.6033 105.795 34.8289 104.751 34.8289C103.707 34.8289 102.923 35.6033 102.923 36.7432C102.923 37.8833 103.707 38.6575 104.751 38.6575C105.795 38.6575 106.587 37.8833 106.587 36.7432ZM107.022 36.7432C107.022 38.1006 106.056 39.0491 104.777 39.0491C103.959 39.0491 103.271 38.6404 102.914 37.9442V39.0145H102.497V32.5576H102.932V35.5077C103.298 34.8289 103.976 34.4372 104.777 34.4372C106.056 34.4372 107.022 35.377 107.022 36.7432Z" fill="#0F2A54"/>
    <path fill-rule="evenodd" clip-rule="evenodd" d="M108.31 36.5085H111.791C111.73 35.5251 111.016 34.8203 110.05 34.8203C109.084 34.8203 108.38 35.5167 108.31 36.5085ZM112.208 36.8479H108.301C108.345 37.9269 109.137 38.6577 110.224 38.6577C110.799 38.6577 111.329 38.449 111.678 38.0227L111.93 38.3096C111.53 38.7971 110.903 39.0494 110.216 39.0494C108.841 39.0494 107.875 38.0922 107.875 36.7434C107.875 35.3946 108.806 34.4375 110.05 34.4375C111.295 34.4375 112.217 35.3773 112.217 36.7261C112.217 36.761 112.208 36.8043 112.208 36.8479Z" fill="#0F2A54"/>
    <path fill-rule="evenodd" clip-rule="evenodd" d="M115.184 36.5867L114.001 37.6656V39.0145H113.565V32.5576H114.001V37.1262L116.907 34.4721H117.464L115.506 36.3082L117.655 39.0145H117.116L115.184 36.5867Z" fill="#0F2A54"/>
    <path fill-rule="evenodd" clip-rule="evenodd" d="M118.606 39.0145H119.049V34.4721H118.606V39.0145ZM118.465 33.0189C118.465 32.8275 118.624 32.6621 118.827 32.6621C119.031 32.6621 119.19 32.8186 119.19 33.0102C119.19 33.2103 119.031 33.367 118.827 33.367C118.624 33.367 118.465 33.2103 118.465 33.0189Z" fill="#0F2A54"/>
    <path fill-rule="evenodd" clip-rule="evenodd" d="M120.206 38.4666L120.406 38.1185C120.754 38.4141 121.372 38.6666 122.042 38.6666C122.999 38.6666 123.382 38.3272 123.382 37.8137C123.382 36.4912 120.371 37.4659 120.371 35.6818C120.371 34.9945 120.946 34.4375 122.095 34.4375C122.669 34.4375 123.295 34.6115 123.652 34.8814L123.452 35.2295C123.069 34.951 122.573 34.8205 122.086 34.8205C121.198 34.8205 120.806 35.1859 120.806 35.6732C120.806 37.0395 123.817 36.0735 123.817 37.8053C123.817 38.5448 123.182 39.0494 122.025 39.0494C121.276 39.0494 120.563 38.7971 120.206 38.4666Z" fill="#0F2A54"/>
    <path fill-rule="evenodd" clip-rule="evenodd" d="M127.289 38.7272C127.063 38.9448 126.698 39.0492 126.358 39.0492C125.558 39.0492 125.122 38.5793 125.122 37.8136V34.8464H124.287V34.472H125.122V33.48H125.558V34.472H127.002V34.8464H125.558V37.77C125.558 38.3531 125.845 38.6749 126.401 38.6749C126.672 38.6749 126.924 38.588 127.107 38.4226L127.289 38.7272Z" fill="#0F2A54"/>
    <path fill-rule="evenodd" clip-rule="evenodd" d="M131.937 36.7434C131.937 35.6036 131.153 34.8292 130.109 34.8292C129.065 34.8292 128.282 35.6036 128.282 36.7434C128.282 37.8835 129.065 38.6577 130.109 38.6577C131.153 38.6577 131.937 37.8835 131.937 36.7434ZM127.838 36.7434C127.838 35.3946 128.804 34.4375 130.109 34.4375C131.414 34.4375 132.38 35.3946 132.38 36.7434C132.38 38.0922 131.414 39.0494 130.109 39.0494C128.804 39.0494 127.838 38.0922 127.838 36.7434Z" fill="#0F2A54"/>
    <path fill-rule="evenodd" clip-rule="evenodd" d="M137.793 36.3604V39.0145H137.357V36.3951C137.357 35.3686 136.809 34.8289 135.887 34.8289C134.816 34.8289 134.164 35.5165 134.164 36.5954V39.0145H133.729V34.4722H134.146V35.4555C134.451 34.8203 135.086 34.4375 135.948 34.4375C137.053 34.4375 137.793 35.0901 137.793 36.3604Z" fill="#0F2A54"/>
    <path fill-rule="evenodd" clip-rule="evenodd" d="M95.1344 47.224L95.1255 42.0117L92.5762 46.4147H92.3586L89.809 42.0288V47.224H89.374V41.1328H89.7481L92.4715 45.8405L95.1953 41.1328H95.5608L95.5697 47.224H95.1344Z" fill="#0F2A54"/>
    <path fill-rule="evenodd" clip-rule="evenodd" d="M97.5554 47.2237H97.9975V42.6814H97.5554V47.2237ZM97.4141 41.2281C97.4141 41.0367 97.5735 40.8716 97.7767 40.8716C97.9799 40.8716 98.1391 41.0281 98.1391 41.2197C98.1391 41.4197 97.9799 41.5762 97.7767 41.5762C97.5735 41.5762 97.4141 41.4197 97.4141 41.2281Z" fill="#0F2A54"/>
    <path fill-rule="evenodd" clip-rule="evenodd" d="M99.8242 47.2237H100.259V40.7671H99.8242V47.2237Z" fill="#0F2A54"/>
    <path fill-rule="evenodd" clip-rule="evenodd" d="M102.096 47.2237H102.531V40.7671H102.096V47.2237Z" fill="#0F2A54"/>
    <path fill-rule="evenodd" clip-rule="evenodd" d="M104.37 47.2237H104.812V42.6814H104.37V47.2237ZM104.229 41.2281C104.229 41.0367 104.388 40.8716 104.591 40.8716C104.794 40.8716 104.954 41.0281 104.954 41.2197C104.954 41.4197 104.794 41.5762 104.591 41.5762C104.388 41.5762 104.229 41.4197 104.229 41.2281Z" fill="#0F2A54"/>
    <path fill-rule="evenodd" clip-rule="evenodd" d="M110.285 42.6816L107.953 47.8417C107.587 48.677 107.135 48.9471 106.534 48.9471C106.125 48.9471 105.742 48.8077 105.481 48.5379L105.699 48.2073C105.934 48.451 106.204 48.5639 106.543 48.5639C106.96 48.5639 107.265 48.3725 107.544 47.7548L107.787 47.2066L105.742 42.6816H106.204L108.022 46.7454L109.841 42.6816H110.285Z" fill="#0F2A54"/>
    <path fill-rule="evenodd" clip-rule="evenodd" d="M116.315 45.8838V45.0309H114.766C113.826 45.0309 113.496 45.4226 113.496 45.9447C113.496 46.5364 113.957 46.9016 114.758 46.9016C115.523 46.9016 116.054 46.5364 116.315 45.8838ZM116.75 44.3434V47.2237H116.333V46.4144C116.045 46.9365 115.488 47.2586 114.697 47.2586C113.678 47.2586 113.061 46.7365 113.061 45.9618C113.061 45.2745 113.496 44.6915 114.758 44.6915H116.315V44.326C116.315 43.4821 115.854 43.0295 114.966 43.0295C114.34 43.0295 113.774 43.2644 113.4 43.6039L113.182 43.2904C113.635 42.8903 114.296 42.6465 115.001 42.6465C116.124 42.6465 116.75 43.2209 116.75 44.3434Z" fill="#0F2A54"/>
    <path fill-rule="evenodd" clip-rule="evenodd" d="M121.432 47.224L119.874 45.1963L118.316 47.224H117.82L119.622 44.8831L117.916 42.6816H118.412L119.874 44.5697L121.336 42.6816H121.823L120.118 44.8831L121.945 47.224H121.432Z" fill="#0F2A54"/>
    <path fill-rule="evenodd" clip-rule="evenodd" d="M127.15 44.9526C127.15 43.8128 126.358 43.0384 125.314 43.0384C124.269 43.0384 123.486 43.8128 123.486 44.9526C123.486 46.0927 124.269 46.8669 125.314 46.8669C126.358 46.8669 127.15 46.0927 127.15 44.9526ZM127.585 44.9526C127.585 46.3101 126.619 47.2586 125.34 47.2586C124.522 47.2586 123.834 46.8498 123.477 46.1536V47.2239H123.06V40.7671H123.495V43.7172C123.86 43.0384 124.539 42.6467 125.34 42.6467C126.619 42.6467 127.585 43.5865 127.585 44.9526Z" fill="#0F2A54"/>
    <path fill-rule="evenodd" clip-rule="evenodd" d="M132.536 44.9524C132.536 43.8126 131.753 43.0381 130.709 43.0381C129.664 43.0381 128.881 43.8126 128.881 44.9524C128.881 46.0925 129.664 46.8667 130.709 46.8667C131.753 46.8667 132.536 46.0925 132.536 44.9524ZM128.438 44.9524C128.438 43.6036 129.404 42.6465 130.709 42.6465C132.014 42.6465 132.98 43.6036 132.98 44.9524C132.98 46.3012 132.014 47.2584 130.709 47.2584C129.404 47.2584 128.438 46.3012 128.438 44.9524Z" fill="#0F2A54"/>
    <path fill-rule="evenodd" clip-rule="evenodd" d="M136.479 42.6465V43.0728C136.444 43.0728 136.409 43.0641 136.374 43.0641C135.365 43.0641 134.764 43.7343 134.764 44.8569V47.2237H134.329V42.6814H134.747V43.6734C135.025 43.0121 135.626 42.6465 136.479 42.6465Z" fill="#0F2A54"/>
    <path fill-rule="evenodd" clip-rule="evenodd" d="M141.238 44.9524C141.238 43.8126 140.455 43.0381 139.411 43.0381C138.367 43.0381 137.584 43.8126 137.584 44.9524C137.584 46.0925 138.367 46.8667 139.411 46.8667C140.455 46.8667 141.238 46.0925 141.238 44.9524ZM137.14 44.9524C137.14 43.6036 138.105 42.6465 139.411 42.6465C140.716 42.6465 141.682 43.6036 141.682 44.9524C141.682 46.3012 140.716 47.2584 139.411 47.2584C138.105 47.2584 137.14 46.3012 137.14 44.9524Z" fill="#0F2A54"/>
    <path fill-rule="evenodd" clip-rule="evenodd" d="M145.285 46.9366C145.059 47.1542 144.694 47.2587 144.354 47.2587C143.554 47.2587 143.119 46.7888 143.119 46.0231V43.0558H142.283V42.6815H143.119V41.6895H143.554V42.6815H144.998V43.0558H143.554V45.9795C143.554 46.5625 143.841 46.8844 144.398 46.8844C144.667 46.8844 144.92 46.7972 145.103 46.6321L145.285 46.9366Z" fill="#0F2A54"/>
    <path fill-rule="evenodd" clip-rule="evenodd" d="M92.0799 54.0928V53.2401H90.5308C89.591 53.2401 89.2604 53.6318 89.2604 54.1539C89.2604 54.7457 89.7217 55.1111 90.5221 55.1111C91.2879 55.1111 91.8187 54.7457 92.0799 54.0928ZM92.5148 52.5529V55.4329H92.0972V54.6236C91.8102 55.1458 91.2532 55.4678 90.4612 55.4678C89.4434 55.4678 88.8252 54.9457 88.8252 54.171C88.8252 53.4838 89.2604 52.9009 90.5221 52.9009H92.0799V52.5353C92.0799 51.6913 91.6186 51.2387 90.7308 51.2387C90.1044 51.2387 89.5389 51.4737 89.1648 51.8131L88.9472 51.4999C89.3998 51.0993 90.0611 50.856 90.7659 50.856C91.8882 50.856 92.5148 51.4301 92.5148 52.5529Z" fill="#0F2A54"/>
    <path fill-rule="evenodd" clip-rule="evenodd" d="M97.9796 53.0577C97.9796 51.9874 97.1965 51.2476 96.1176 51.2476C95.0473 51.2476 94.264 51.9874 94.264 53.0577C94.264 54.1282 95.0473 54.8764 96.1176 54.8764C97.1965 54.8764 97.9796 54.1282 97.9796 53.0577ZM98.406 50.8909V54.9462C98.406 56.4688 97.6664 57.1563 96.2045 57.1563C95.3778 57.1563 94.5861 56.8951 94.1248 56.4341L94.3595 56.1034C94.8121 56.521 95.465 56.7649 96.1956 56.7649C97.4055 56.7649 97.971 56.2079 97.971 54.9982V54.2324C97.5969 54.894 96.9007 55.2681 96.0827 55.2681C94.7948 55.2681 93.8203 54.3542 93.8203 53.0577C93.8203 51.7613 94.7948 50.8564 96.0827 50.8564C96.918 50.8564 97.6231 51.239 97.9883 51.9178V50.8909H98.406Z" fill="#0F2A54"/>
    <path fill-rule="evenodd" clip-rule="evenodd" d="M100.191 52.9269H103.672C103.611 51.9436 102.897 51.2387 101.931 51.2387C100.965 51.2387 100.26 51.9349 100.191 52.9269ZM104.089 53.2661H100.182C100.226 54.3453 101.018 55.0762 102.105 55.0762C102.68 55.0762 103.21 54.8675 103.558 54.4409L103.811 54.7281C103.411 55.2156 102.784 55.4678 102.096 55.4678C100.722 55.4678 99.7559 54.5105 99.7559 53.1617C99.7559 51.8131 100.687 50.856 101.931 50.856C103.176 50.856 104.098 51.7955 104.098 53.1446C104.098 53.1792 104.089 53.2228 104.089 53.2661Z" fill="#0F2A54"/>
    <path fill-rule="evenodd" clip-rule="evenodd" d="M109.51 52.7789V55.4329H109.075V52.8136C109.075 51.7871 108.527 51.2474 107.604 51.2474C106.534 51.2474 105.882 51.9347 105.882 53.0139V55.4329H105.446V50.8904H105.864V51.874C106.169 51.2387 106.804 50.856 107.666 50.856C108.771 50.856 109.51 51.5086 109.51 52.7789Z" fill="#0F2A54"/>
    <path fill-rule="evenodd" clip-rule="evenodd" d="M113.557 55.1461C113.331 55.3637 112.965 55.4682 112.625 55.4682C111.825 55.4682 111.39 54.9981 111.39 54.2323V51.2653H110.555V50.8907H111.39V49.8989H111.825V50.8907H113.27V51.2653H111.825V54.189C111.825 54.772 112.112 55.0941 112.669 55.0941C112.939 55.0941 113.191 55.007 113.374 54.8416L113.557 55.1461Z" fill="#0F2A54"/>
    <path fill-rule="evenodd" clip-rule="evenodd" d="M114.767 55.4332H115.202V48.9766H114.767V55.4332Z" fill="#0F2A54"/>
    <path fill-rule="evenodd" clip-rule="evenodd" d="M117.04 55.4329H117.482V50.8904H117.04V55.4329ZM116.898 49.4373C116.898 49.2459 117.057 49.0806 117.261 49.0806C117.464 49.0806 117.623 49.2373 117.623 49.4287C117.623 49.6289 117.464 49.7854 117.261 49.7854C117.057 49.7854 116.898 49.6289 116.898 49.4373Z" fill="#0F2A54"/>
    <path fill-rule="evenodd" clip-rule="evenodd" d="M122.973 53.0577C122.973 51.9874 122.19 51.2476 121.111 51.2476C120.04 51.2476 119.257 51.9874 119.257 53.0577C119.257 54.1282 120.04 54.8764 121.111 54.8764C122.19 54.8764 122.973 54.1282 122.973 53.0577ZM123.399 50.8909V54.9462C123.399 56.4688 122.66 57.1563 121.198 57.1563C120.371 57.1563 119.579 56.8951 119.118 56.4341L119.353 56.1034C119.805 56.521 120.458 56.7649 121.189 56.7649C122.399 56.7649 122.964 56.2079 122.964 54.9982V54.2324C122.59 54.894 121.894 55.2681 121.076 55.2681C119.788 55.2681 118.813 54.3542 118.813 53.0577C118.813 51.7613 119.788 50.8564 121.076 50.8564C121.911 50.8564 122.616 51.239 122.981 51.9178V50.8909H123.399Z" fill="#0F2A54"/>
    <path fill-rule="evenodd" clip-rule="evenodd" d="M125.246 55.4329H125.688V50.8904H125.246V55.4329ZM125.104 49.4373C125.104 49.2459 125.264 49.0806 125.467 49.0806C125.67 49.0806 125.829 49.2373 125.829 49.4287C125.829 49.6289 125.67 49.7854 125.467 49.7854C125.264 49.7854 125.104 49.6289 125.104 49.4373Z" fill="#0F2A54"/>
  </g>
  <defs>
    <clipPath id="clip0_776_1444">
      <rect width="145" height="87" fill="white" transform="translate(0.5)"/>
    </clipPath>
  </defs>
</svg>