<svg width="204" height="59" viewBox="0 0 204 59" fill="none" xmlns="http://www.w3.org/2000/svg">
<path d="M110.784 31.3073H108.343V24.7431C108.343 24.0344 108.373 23.251 108.434 22.3929H108.373C108.29 22.8842 108.175 23.3696 108.029 23.8461L105.459 31.3073H103.439L100.823 23.9245C100.679 23.4212 100.563 22.9104 100.475 22.3945H100.409C100.475 23.4756 100.508 24.4243 100.508 25.2406V31.3073H98.2812V20.3396H101.901L104.143 26.8419C104.319 27.3516 104.45 27.8759 104.534 28.4087H104.581C104.699 27.8732 104.845 27.3442 105.019 26.8239L107.257 20.3396H110.782L110.784 31.3073ZM122.221 26.5567C122.221 29.8517 120.686 31.4992 117.616 31.4992C114.639 31.4992 113.15 29.8901 113.15 26.6719V20.3396H115.626V26.7048C115.626 28.4805 116.319 29.3684 117.707 29.3684C119.067 29.3658 119.747 28.5074 119.747 26.7933V20.3396H122.217L122.221 26.5567ZM133.811 31.3073H130.973L129.267 28.487C129.139 28.2729 129.017 28.0818 128.899 27.9136C128.794 27.7593 128.674 27.6146 128.543 27.4811C128.434 27.3691 128.308 27.2759 128.168 27.2054C128.036 27.1412 127.891 27.1084 127.744 27.1098H127.078V31.3073H124.608V20.3396H128.525C131.188 20.3396 132.52 21.3343 132.52 23.3236C132.524 23.6845 132.464 24.0432 132.344 24.3836C132.23 24.7019 132.061 24.9982 131.846 25.2594C131.626 25.5247 131.364 25.752 131.07 25.9323C130.754 26.1263 130.413 26.2756 130.056 26.3758V26.4063C130.227 26.4614 130.388 26.5454 130.53 26.6546C130.69 26.7753 130.838 26.9098 130.974 27.0565C131.119 27.2131 131.256 27.3779 131.383 27.5501C131.513 27.7261 131.631 27.8982 131.738 28.0663L133.811 31.3073ZM127.079 22.1877V25.2429H128.149C128.619 25.2652 129.079 25.1001 129.427 24.7839C129.586 24.6369 129.711 24.4582 129.795 24.2593C129.88 24.0604 129.921 23.8459 129.917 23.6299C129.917 22.671 129.342 22.1916 128.193 22.1916L127.079 22.1877ZM139.319 31.4985C138.608 31.5244 137.899 31.4014 137.238 31.1373C136.577 30.8731 135.978 30.4736 135.481 29.9645C134.98 29.4306 134.591 28.8023 134.336 28.1163C134.081 27.4303 133.966 26.7004 133.996 25.9692C133.927 24.4232 134.469 22.9122 135.503 21.7615C136.017 21.2248 136.638 20.8038 137.327 20.5267C138.016 20.2497 138.757 20.1228 139.499 20.1547C140.205 20.1268 140.909 20.2496 141.564 20.5147C142.219 20.7798 142.81 21.1814 143.297 21.6925C144.293 22.8009 144.813 24.2567 144.744 25.7451C144.813 27.279 144.273 28.7781 143.24 29.9144C142.736 30.4404 142.125 30.8536 141.449 31.1266C140.774 31.3996 140.048 31.5264 139.319 31.4985ZM139.427 22.2793C139.029 22.265 138.634 22.3461 138.275 22.5158C137.916 22.6855 137.602 22.9389 137.361 23.2547C136.819 24.0043 136.549 24.9162 136.595 25.8399C136.545 26.7619 136.815 27.673 137.361 28.4181C137.597 28.7222 137.902 28.9664 138.25 29.1309C138.598 29.2953 138.98 29.3753 139.365 29.3645C139.752 29.3798 140.137 29.3044 140.489 29.1443C140.841 28.9842 141.151 28.7438 141.393 28.4424C141.932 27.702 142.197 26.7973 142.143 25.883C142.199 24.9421 141.944 24.0088 141.416 23.228C141.186 22.9208 140.884 22.674 140.538 22.5088C140.192 22.3437 139.81 22.2652 139.427 22.2801V22.2793ZM150.987 26.9539C151.07 28.1651 150.707 29.365 149.968 30.328C149.592 30.7302 149.132 31.0438 148.62 31.2462C148.109 31.4487 147.558 31.5348 147.009 31.4985C146.462 31.5039 145.919 31.4025 145.41 31.2V28.8787C145.817 29.1943 146.318 29.364 146.833 29.3605C147.96 29.3605 148.524 28.5249 148.524 26.8536V20.3396H150.987L150.987 26.9539ZM162.569 31.3073H159.877L159.093 28.867H155.192L154.422 31.3073H151.744L155.739 20.3396H158.669L162.569 31.3073ZM158.53 26.9696L157.35 23.2821C157.255 22.9604 157.193 22.6295 157.167 22.295H157.106C157.08 22.6202 157.015 22.9412 156.915 23.2515L155.722 26.9696H158.53ZM173.586 31.3073H170.893L170.11 28.867H166.208L165.438 31.3073H162.76L166.751 20.3396H169.681L173.586 31.3073ZM169.546 26.9696L168.371 23.2821C168.276 22.9604 168.214 22.6295 168.188 22.295H168.127C168.1 22.6202 168.036 22.9412 167.936 23.2515L166.739 26.9696H169.546ZM181.565 22.3475H178.436V31.3073H175.958V22.3483H172.844V20.3396H181.565V22.3475Z" fill="#2B2892"/>
<path d="M103.182 42.1379C102.447 42.5303 101.621 42.7216 100.788 42.6925C100.332 42.7181 99.8768 42.6537 99.4466 42.5028C99.0164 42.352 98.6202 42.1178 98.2807 41.8136C97.9682 41.496 97.7255 41.1166 97.5682 40.6997C97.4109 40.2828 97.3425 39.8377 97.3673 39.3928C97.3497 38.9249 97.4296 38.4584 97.6018 38.023C97.774 37.5875 98.0348 37.1926 98.3677 36.8632C98.7238 36.5305 99.143 36.2726 99.6005 36.1046C100.058 35.9367 100.544 35.8622 101.031 35.8855C101.658 35.8741 102.283 35.9719 102.876 36.1746V37.5644C102.305 37.2552 101.662 37.1032 101.012 37.1241C100.734 37.1134 100.456 37.1609 100.197 37.2637C99.9383 37.3665 99.7036 37.5223 99.5083 37.721C99.3102 37.9358 99.1568 38.1879 99.0572 38.4625C98.9575 38.7372 98.9135 39.0289 98.9278 39.3208C98.8922 39.8908 99.0789 40.4524 99.4488 40.8876C99.6307 41.0752 99.8507 41.2218 100.094 41.3176C100.337 41.4133 100.598 41.4561 100.859 41.443C101.148 41.4557 101.437 41.404 101.703 41.2918V40.0125H100.383V38.828H103.182V42.1379ZM107.245 42.6933C106.818 42.7093 106.392 42.6356 105.995 42.4771C105.598 42.3185 105.238 42.0786 104.94 41.7728C104.639 41.4522 104.406 41.0749 104.254 40.663C104.101 40.2511 104.032 39.8129 104.051 39.374C104.009 38.4464 104.334 37.5397 104.955 36.8491C105.263 36.5274 105.636 36.2751 106.049 36.1089C106.462 35.9428 106.906 35.8666 107.351 35.8855C107.775 35.8689 108.197 35.9426 108.59 36.1017C108.983 36.2608 109.337 36.5017 109.63 36.8084C110.229 37.4729 110.542 38.3469 110.502 39.2409C110.544 40.1611 110.22 41.0605 109.6 41.7423C109.297 42.0581 108.931 42.3062 108.525 42.47C108.119 42.6338 107.683 42.7096 107.245 42.6925V42.6933ZM107.309 37.1617C107.071 37.1531 106.834 37.2018 106.619 37.3036C106.403 37.4054 106.215 37.5574 106.07 37.7469C105.746 38.1963 105.584 38.7428 105.611 39.2965C105.581 39.8498 105.743 40.3966 106.07 40.8437C106.212 41.0265 106.394 41.1733 106.603 41.2723C106.812 41.3712 107.042 41.4195 107.273 41.4132C107.505 41.4223 107.735 41.377 107.947 41.2809C108.158 41.1849 108.344 41.0408 108.489 40.8602C108.813 40.416 108.972 39.8732 108.939 39.3247C108.973 38.7602 108.819 38.2004 108.503 37.732C108.365 37.5474 108.184 37.3991 107.976 37.2997C107.769 37.2004 107.54 37.153 107.309 37.1617ZM117.073 35.9976L114.805 42.5782H113.125L110.885 35.9976H112.482L113.855 40.5766C113.922 40.7903 113.966 41.0103 113.988 41.2331H114.015C114.042 41.0043 114.09 40.7785 114.158 40.5585L115.521 35.9976H117.073ZM117.426 42.6925C117.206 42.6996 116.992 42.6207 116.829 42.4724C116.753 42.4045 116.693 42.321 116.653 42.2275C116.612 42.1341 116.592 42.0329 116.594 41.9311C116.592 41.8282 116.613 41.7261 116.655 41.6323C116.697 41.5386 116.761 41.4556 116.84 41.3897C117.011 41.2462 117.229 41.1709 117.452 41.1782C117.675 41.1691 117.892 41.2454 118.06 41.3913C118.136 41.4585 118.197 41.5416 118.237 41.6348C118.278 41.7279 118.298 41.8287 118.295 41.9303C118.298 42.0339 118.278 42.1368 118.236 42.2316C118.194 42.3265 118.132 42.4108 118.054 42.4787C117.879 42.6264 117.655 42.7027 117.426 42.6925ZM124.838 39.7274C124.838 41.7042 123.916 42.6925 122.072 42.6925C120.285 42.6925 119.391 41.7263 119.391 39.7939V35.9976H120.88V39.8167C120.88 40.8816 121.296 41.414 122.128 41.414C122.945 41.414 123.354 40.8999 123.354 39.8715V35.9976H124.838V39.7274ZM131.004 42.5782H125.7V41.7243L129.076 37.2032H125.943V35.9976H130.992V36.8287L127.695 41.3756H131.004V42.5782Z" fill="#2B2892"/>
<path fill-rule="evenodd" clip-rule="evenodd" d="M51.9397 2.53286e-05C58.7647 9.31315e-05 65.3786 2.36671 70.6543 6.69647C75.93 11.0262 79.5413 17.0513 80.8727 23.7451C82.2041 30.439 81.1733 37.3874 77.956 43.4064C74.7387 49.4255 69.5339 54.1428 63.2284 56.7546C56.9229 59.3663 49.9069 59.7109 43.3759 57.7296C36.8448 55.7484 31.2027 51.564 27.411 45.8892C23.6193 40.2144 21.9126 33.4004 22.5816 26.6083C23.2506 19.8162 26.254 13.4662 31.08 8.64026C33.8163 5.89685 37.0678 3.72113 40.6476 2.23836C44.2274 0.755583 48.065 -0.00505976 51.9397 2.53286e-05ZM60.4131 48.3997C57.2591 49.8131 53.8016 50.4148 50.3556 50.1499C46.9096 49.8851 43.5847 48.7621 40.6838 46.8834C37.7828 45.0046 35.3981 42.4298 33.747 39.3936C32.0958 36.3573 31.2307 32.9562 31.2304 29.5C31.2304 28.8513 31.2565 28.2288 31.3087 27.6323C31.3646 27.0114 31.449 26.3931 31.5618 25.7773C31.6033 25.5428 31.55 25.3013 31.4136 25.1062C31.2772 24.911 31.0688 24.778 30.8344 24.7365C30.5999 24.6949 30.3585 24.7483 30.1634 24.8847C29.9682 25.0211 29.8352 25.2293 29.7936 25.4638C29.6719 26.1302 29.5805 26.8002 29.5194 27.4734C29.4562 28.1727 29.4246 28.8492 29.4246 29.5031C29.4237 33.26 30.3633 36.9574 32.1577 40.2581C33.9521 43.5588 36.5441 46.3576 39.6976 48.3997C42.851 50.4418 46.4655 51.6621 50.2114 51.9491C53.9573 52.2362 57.7155 51.5809 61.1432 50.0432C61.2539 49.9971 61.3543 49.9294 61.4384 49.8439C61.5224 49.7584 61.5886 49.657 61.6329 49.5456C61.6771 49.4341 61.6986 49.3149 61.6961 49.195C61.6936 49.0751 61.6671 48.9569 61.6182 48.8475C61.5693 48.738 61.499 48.6394 61.4114 48.5575C61.3238 48.4756 61.2208 48.4121 61.1082 48.3706C60.9957 48.3292 60.876 48.3106 60.7562 48.3161C60.6364 48.3217 60.519 48.3511 60.4108 48.4028L60.4131 48.3997ZM48.3431 9.10331C48.9343 8.99885 49.5316 8.92048 50.1348 8.86825C50.738 8.81602 51.3386 8.78983 51.9366 8.78983C57.4291 8.78983 62.6966 10.9717 66.5804 14.8555C70.4641 18.7393 72.646 24.0068 72.646 29.4992C72.646 30.0936 72.6199 30.6842 72.5677 31.2713C72.5154 31.8583 72.4402 32.4435 72.342 33.0269C72.3019 33.2623 72.357 33.504 72.4951 33.6988C72.6332 33.8936 72.843 34.0257 73.0784 34.0658C73.3138 34.1059 73.5555 34.0507 73.7503 33.9126C73.9452 33.7745 74.0771 33.5647 74.1172 33.3293C74.2274 32.6916 74.3097 32.0549 74.364 31.4193C74.4183 30.7837 74.4457 30.1435 74.4462 29.4985C74.4462 23.5277 72.0744 17.8016 67.8524 13.5796C63.6304 9.35763 57.9042 6.98566 51.9335 6.98566C51.2796 6.98566 50.6268 7.01423 49.975 7.07115C49.3232 7.12808 48.6745 7.21364 48.029 7.32802C47.7936 7.36957 47.5843 7.50303 47.4472 7.69887C47.3102 7.89472 47.2565 8.1369 47.2981 8.37231C47.3396 8.60771 47.473 8.81705 47.6688 8.95412C47.8647 9.0912 48.1077 9.14486 48.3431 9.10331ZM69.7207 38.3086C69.3833 38.0985 69.0314 37.9124 68.6679 37.7516C68.477 37.6668 68.2603 37.6613 68.0654 37.7363C67.8705 37.8113 67.7135 37.9607 67.6287 38.1515C67.5439 38.3424 67.5384 38.5591 67.6134 38.754C67.6884 38.9489 67.8378 39.1061 68.0286 39.1908C68.3204 39.3196 68.6028 39.4684 68.8739 39.6365C69.1228 39.7899 69.3587 39.9637 69.579 40.156C69.826 40.3728 70.0239 40.6399 70.1595 40.9394C70.2954 41.2416 70.3657 41.5693 70.3655 41.9006V43.0545C70.3655 43.1766 70.3171 43.2937 70.2308 43.38C70.1446 43.4664 70.0277 43.5149 69.9057 43.5151H57.6751C57.553 43.5149 57.4359 43.4664 57.3496 43.38C57.2632 43.2937 57.2147 43.1766 57.2144 43.0545V41.9006C57.2143 41.5693 57.2845 41.2416 57.4205 40.9394C57.556 40.6399 57.7539 40.3728 58.001 40.156C58.7371 39.5413 59.5929 39.0862 60.5141 38.8194C61.576 38.4991 62.6805 38.3422 63.7896 38.3541C64.9119 38.3564 65.9994 37.965 66.8628 37.248C67.7262 36.5311 68.3108 35.5339 68.5148 34.4303C68.7188 33.3268 68.5292 32.1866 67.9791 31.2084C67.429 30.2301 66.5532 29.4759 65.5042 29.0769C64.4553 28.6779 63.2996 28.6594 62.2385 29.0247C61.1773 29.3901 60.2779 30.116 59.6969 31.0762C59.1158 32.0364 58.89 33.1699 59.0586 34.2794C59.2273 35.389 59.7798 36.4042 60.6199 37.1484C59.9763 37.3074 59.3501 37.5303 58.7507 37.8136C58.1044 38.1158 57.5028 38.5057 56.963 38.9722C56.5467 39.3386 56.2134 39.7894 55.9852 40.2948C55.757 40.8002 55.6393 41.3484 55.6398 41.9029V43.0568C55.6398 43.597 55.8544 44.1152 56.2364 44.4972C56.6184 44.8792 57.1364 45.0938 57.6766 45.0938H69.9072C70.4474 45.0938 70.9655 44.8792 71.3475 44.4972C71.7295 44.1152 71.9441 43.597 71.9441 43.0568V41.9029C71.9446 41.3484 71.8268 40.8002 71.5987 40.2948C71.3705 39.7894 71.0371 39.3386 70.6209 38.9722C70.34 38.727 70.0398 38.5047 69.7231 38.3078L69.7207 38.3086ZM61.5248 31.3074C61.002 31.8315 60.677 32.5204 60.6053 33.2571C60.5335 33.9939 60.7193 34.7327 61.1311 35.3478C61.543 35.9629 62.1553 36.4163 62.8638 36.6306C63.5723 36.845 64.3332 36.807 65.0169 36.5233C65.7006 36.2396 66.2648 35.7277 66.6135 35.0747C66.9621 34.4217 67.0736 33.6681 66.929 32.9421C66.7843 32.2162 66.3925 31.5629 65.8202 31.0934C65.2479 30.6239 64.5306 30.3672 63.7904 30.3672C63.3694 30.3669 62.9525 30.4499 62.5637 30.6112C62.1749 30.7726 61.8219 31.0092 61.5248 31.3074ZM41.8612 12.6122C41.7008 12.612 41.544 12.6594 41.4106 12.7484C41.2771 12.8374 41.1731 12.964 41.1116 13.1121C41.0501 13.2603 41.0339 13.4232 41.0651 13.5805C41.0963 13.7379 41.1734 13.8825 41.2868 13.996C41.4002 14.1094 41.5447 14.1869 41.702 14.2182C41.8593 14.2496 42.0223 14.2335 42.1705 14.1721C42.3187 14.1108 42.4454 14.0069 42.5345 13.8736C42.6237 13.7402 42.6713 13.5833 42.6713 13.4229C42.6713 13.208 42.5859 13.002 42.434 12.8499C42.2821 12.6979 42.0761 12.6124 41.8612 12.6122ZM60.3128 22.3208H44.488C43.8462 22.3227 43.2312 22.5786 42.7775 23.0325C42.3238 23.4864 42.0681 24.1014 42.0665 24.7431V26.7409L50.9542 33.352C51.3711 33.6649 51.8784 33.834 52.3996 33.834C52.9209 33.834 53.4281 33.6649 53.845 33.352L62.7328 26.7409V24.7431C62.7311 24.1014 62.4755 23.4864 62.0218 23.0325C61.568 22.5786 60.953 22.3227 60.3113 22.3208H60.3128ZM61.1197 25.9292V24.7431C61.1195 24.5291 61.0345 24.324 60.8832 24.1726C60.732 24.0212 60.5268 23.9359 60.3128 23.9354H44.488C44.2739 23.9357 44.0687 24.0208 43.9174 24.1722C43.7661 24.3237 43.6811 24.5291 43.6811 24.7431V25.9292L51.9178 32.0555C52.0568 32.1597 52.2259 32.2161 52.3996 32.2161C52.5734 32.2161 52.7424 32.1597 52.8814 32.0555L61.1181 25.9292H61.1197ZM55.7385 39.1117L55.7511 39.0952C55.9502 38.8267 56.1773 38.5801 56.4287 38.3596C56.719 38.1056 57.0274 37.873 57.3515 37.6638C57.4377 37.609 57.5263 37.5534 57.6179 37.4978H44.4872C44.2732 37.4974 44.0681 37.4122 43.9168 37.2608C43.7655 37.1094 43.6805 36.9041 43.6803 36.6901V29.9529L42.0657 28.7518V36.6893C42.0676 37.331 42.3233 37.9459 42.777 38.3996C43.2307 38.8533 43.8455 39.109 44.4872 39.1109L55.7385 39.1117ZM40.8537 28.5521H33.9598C33.7517 28.5586 33.5543 28.6459 33.4094 28.7954C33.2645 28.9449 33.1834 29.1449 33.1834 29.3531C33.1834 29.5613 33.2645 29.7613 33.4094 29.9108C33.5543 30.0604 33.7517 30.1476 33.9598 30.1541H40.8358V28.7526C40.8358 28.6854 40.8413 28.6184 40.8522 28.5521H40.8537ZM52.5265 14.8159C52.5265 14.6608 52.4815 14.5091 52.397 14.3791C52.3125 14.249 52.192 14.1463 52.0502 14.0834L42.5788 9.87887C42.4764 9.83323 42.3655 9.80964 42.2533 9.80964C42.1411 9.80964 42.0303 9.83323 41.9278 9.87887L32.4964 14.0841C32.3551 14.1471 32.2351 14.2495 32.1508 14.3793C32.0666 14.509 32.0217 14.6605 32.0216 14.8151V16.9374C32.0216 16.9444 32.0216 16.9506 32.0216 16.9577C32.0216 16.9647 32.0216 16.9711 32.0216 16.9781C32.0216 17.1905 32.106 17.3941 32.2562 17.5443C32.4063 17.6944 32.6099 17.7787 32.8223 17.7787C32.921 17.7824 33.0179 17.8066 33.1068 17.8497C33.1957 17.8928 33.2747 17.954 33.3387 18.0293C33.4028 18.1046 33.4504 18.1924 33.4787 18.2871C33.507 18.3818 33.5153 18.4813 33.503 18.5794V26.0491C33.503 26.0655 33.503 26.082 33.503 26.0984C33.503 26.1149 33.503 26.1313 33.503 26.1478C33.503 26.253 33.5238 26.3572 33.5641 26.4544C33.6044 26.5515 33.6634 26.6399 33.7379 26.7143C33.8123 26.7886 33.9006 26.8476 33.9978 26.8878C34.0951 26.9279 34.1993 26.9485 34.3045 26.9484H40.853C40.841 26.879 40.8349 26.8089 40.8349 26.7386V24.7409C40.8345 23.9822 41.0718 23.2425 41.5134 22.6257V18.5824C41.5134 18.37 41.5978 18.1663 41.748 18.0161C41.8983 17.8659 42.102 17.7814 42.3144 17.7814C42.5269 17.7814 42.7306 17.8659 42.8808 18.0161C43.031 18.1663 43.1155 18.37 43.1155 18.5824V21.362C43.5501 21.1855 44.0149 21.095 44.4841 21.0956H44.7191V18.5824C44.7191 18.37 44.8035 18.1663 44.9537 18.0161C45.1039 17.8659 45.3077 17.7814 45.5201 17.7814C45.7326 17.7814 45.9363 17.8659 46.0866 18.0161C46.2368 18.1663 46.3211 18.37 46.3211 18.5824V21.0956H47.9232V18.5824C47.9232 18.37 48.0076 18.1663 48.1578 18.0161C48.3081 17.8659 48.5118 17.7814 48.7242 17.7814C48.9367 17.7814 49.1404 17.8659 49.2907 18.0161C49.4409 18.1663 49.5253 18.37 49.5253 18.5824V21.0956H51.1289V18.5824C51.1289 18.3944 51.172 17.7818 51.7298 17.7818C51.9422 17.7818 52.1458 17.6975 52.296 17.5473C52.4461 17.3972 52.5304 17.1935 52.5304 16.9812C52.5304 16.9741 52.5304 16.9678 52.5304 16.9607C52.5304 16.9537 52.5304 16.9475 52.5304 16.9404V14.8182L52.5265 14.8159ZM36.7142 25.3504V18.5824C36.7142 18.37 36.6299 18.1663 36.4796 18.0161C36.3294 17.8659 36.1257 17.7814 35.9132 17.7814C35.7008 17.7814 35.497 17.8659 35.3468 18.0161C35.1966 18.1663 35.1122 18.37 35.1122 18.5824V25.3504H36.7142ZM39.9184 25.3504V18.5824C39.9184 18.37 39.834 18.1663 39.6837 18.0161C39.5335 17.8659 39.3298 17.7814 39.1173 17.7814C38.9049 17.7814 38.7011 17.8659 38.5509 18.0161C38.4007 18.1663 38.3163 18.37 38.3163 18.5824V25.3504H39.9184ZM50.9315 16.1391V15.3384L42.2616 11.4887L33.63 15.3377V16.1391H50.9315ZM71.5281 9.9156C66.9971 5.38467 61.0353 2.56501 54.6585 1.93693C48.2816 1.30886 41.8842 2.91126 36.5564 6.47117C31.2285 10.0311 27.2999 15.3282 25.4398 21.4599C23.5797 27.5917 23.9032 34.1788 26.3553 40.0988C28.8073 46.0188 33.2362 50.9054 38.8872 53.926C44.5383 56.9467 51.0619 57.9147 57.3465 56.6647C63.6311 55.4147 69.2879 52.0242 73.353 47.071C77.4182 42.1179 79.6401 35.9085 79.6402 29.5008C79.6445 25.8625 78.9296 22.2593 77.5368 18.8982C76.144 15.5371 74.1006 12.4844 71.5242 9.9156H71.5281Z" fill="url(#paint0_linear_776_62)"/>
<defs>
<linearGradient id="paint0_linear_776_62" x1="49.4025" y1="49.56" x2="55.5975" y2="0.766997" gradientUnits="userSpaceOnUse">
<stop stop-color="#2B2892"/>
<stop offset="1" stop-color="#7773FB"/>
</linearGradient>
</defs>
</svg>
