<svg xmlns="http://www.w3.org/2000/svg" width="18" height="36" viewBox="0 0 18 36" fill="none">
  <path d="M4.58388 1.40193C3.70129 0.527177 2.27668 0.533533 1.40193 1.41612C0.527177 2.29871 0.533533 3.72332 1.41612 4.59807L6.70503 9.83999C8.85151 11.9674 10.3239 13.4315 11.3202 14.6721C12.288 15.8772 12.62 16.6513 12.7084 17.3445C12.7639 17.7798 12.7639 18.2202 12.7084 18.6555C12.62 19.3487 12.288 20.1228 11.3202 21.3279C10.3239 22.5685 8.85151 24.0326 6.70503 26.16L1.41612 31.4019C0.533533 32.2767 0.527177 33.7013 1.40193 34.5839C2.27668 35.4665 3.70129 35.4728 4.58388 34.5981L9.96807 29.2617C11.996 27.2519 13.6534 25.6092 14.8288 24.1456C16.0511 22.6236 16.9359 21.0788 17.1723 19.2245C17.2759 18.4114 17.2759 17.5886 17.1723 16.7755C16.9359 14.9212 16.0511 13.3764 14.8288 11.8544C13.6534 10.3908 11.996 8.74812 9.96806 6.73828L4.58388 1.40193Z" fill="white"/>
</svg>