<svg xmlns="http://www.w3.org/2000/svg" width="18" height="36" viewBox="0 0 18 36" fill="none">
  <path d="M16.5839 4.59807C17.4665 3.72332 17.4728 2.29871 16.5981 1.41612C15.7233 0.533533 14.2987 0.527177 13.4161 1.40193L8.03193 6.73829C6.00401 8.74812 4.34659 10.3908 3.17117 11.8544C1.94888 13.3764 1.06408 14.9212 0.827727 16.7755C0.724091 17.5886 0.724091 18.4114 0.827727 19.2245C1.06408 21.0788 1.94888 22.6236 3.17117 24.1456C4.34658 25.6092 6.00398 27.2519 8.03189 29.2617L13.4161 34.5981C14.2987 35.4728 15.7233 35.4665 16.5981 34.5839C17.4728 33.7013 17.4665 32.2767 16.5839 31.4019L11.295 26.16C9.14849 24.0326 7.67608 22.5685 6.67978 21.3279C5.71199 20.1228 5.37997 19.3487 5.29161 18.6555C5.23613 18.2202 5.23613 17.7798 5.29161 17.3445C5.37997 16.6513 5.71199 15.8772 6.67978 14.6721C7.67608 13.4315 9.14849 11.9674 11.295 9.84L16.5839 4.59807Z" fill="white"/>
</svg>